<svg width="902" height="280" viewBox="0 0 902 280" fill="none" xmlns="http://www.w3.org/2000/svg">
<g clip-path="url(#clip0_6_22)">
<g clip-path="url(#clip1_6_22)">
<rect width="280" height="280" rx="10" fill="#1E1E1E"/>
<g filter="url(#filter0_b_6_22)">
<path d="M270 205H10V139.834C124.485 139.834 96.9665 17.1486 199.385 9.01083C202.815 8.73803 204.675 13.6844 202.232 16.572C193.986 26.318 182.455 45.3097 182.455 75.3176C182.455 107.39 221.028 139.834 270 139.834V205Z" fill="#5339F8"/>
<path d="M199.465 10.0077L199.385 9.01086L199.465 10.0077C200.603 9.91715 201.591 10.6729 202.075 11.9584C202.557 13.2398 202.419 14.8029 201.469 15.9261C193.1 25.8167 181.455 45.0301 181.455 75.3176C181.455 91.7586 191.328 108.152 207.253 120.396C222.98 132.486 244.701 140.612 269 140.829V204H11V140.83C39.2836 140.654 58.9638 132.968 74.0966 121.33C89.3711 109.582 99.9466 93.8513 110.06 78.012C110.883 76.7238 111.702 75.435 112.521 74.1476C121.796 59.5591 130.964 45.1402 143.366 33.6176C156.818 21.1197 174.092 12.0237 199.465 10.0077Z" stroke="white" stroke-width="2"/>
</g>
<path d="M121.105 170.706C119.213 173.468 117.289 177.776 117.289 183.833C117.289 187.789 117.922 191.944 120.265 195.125C122.653 198.366 126.671 200.406 133 200.406C147.378 200.406 154.96 193.14 161.727 185.669C162.286 185.053 162.838 184.436 163.388 183.822C169.523 176.972 175.299 170.523 185.464 169.007C185.688 168.973 185.954 169.08 186.137 169.463C186.322 169.847 186.314 170.332 186.058 170.707C184.166 173.468 182.241 177.776 182.241 183.833C182.241 187.82 183.023 191.974 185.509 195.148C188.032 198.368 192.172 200.406 198.5 200.406C212.883 200.406 220.328 193.135 226.96 185.662C227.502 185.051 228.038 184.44 228.571 183.833C234.586 176.977 240.248 170.523 250.417 169.007C250.641 168.973 250.906 169.08 251.09 169.463C251.275 169.847 251.267 170.332 251.011 170.707C249.119 173.468 247.194 177.776 247.194 183.833C247.194 187.936 249.605 191.923 253.369 194.928C257.149 197.945 262.385 200.057 268.282 200.404C268.551 200.42 269 200.764 269 201.416V264.951C269 266.069 268.616 267.117 267.968 267.868C267.325 268.616 266.487 269 265.65 269H14.9508C12.8821 269 10.9642 266.978 11.0005 264.179L11.0005 264.179L11.0006 264.169L11.1858 200.443C17.8177 200.283 22.6089 198.52 26.3612 195.839C30.2705 193.045 32.9806 189.301 35.46 185.576C35.8207 185.035 36.1767 184.493 36.531 183.955C41.0913 177.021 45.3624 170.527 55.5581 169.007C55.7824 168.973 56.0479 169.08 56.2318 169.463C56.4164 169.847 56.4088 170.332 56.1524 170.707C54.2606 173.468 52.3357 177.776 52.3357 183.833C52.3357 187.787 52.9565 191.953 55.2858 195.145C57.6614 198.401 61.6686 200.455 68 200.455C82.3785 200.455 89.9723 193.176 96.7508 185.694C97.3104 185.076 97.8637 184.458 98.4141 183.844C104.56 176.982 110.346 170.523 120.511 169.007M121.105 170.706L121.93 171.271L121.105 170.707C121.105 170.707 121.105 170.706 121.105 170.706ZM121.105 170.706C121.362 170.332 121.369 169.847 121.185 169.463C121.001 169.08 120.735 168.973 120.511 169.007M120.511 169.007L120.364 168.018L120.511 169.007C120.511 169.007 120.511 169.007 120.511 169.007Z" fill="#9180FF" stroke="white" stroke-width="2"/>
</g>
<path d="M347.99 183.46C343.557 183.46 338.87 182.763 333.93 181.37C329.117 180.103 324.81 177.95 321.01 174.91C317.337 171.87 314.867 167.817 313.6 162.75C313.473 162.117 313.347 161.42 313.22 160.66C313.22 159.9 313.22 159.14 313.22 158.38C313.22 154.453 314.107 150.653 315.88 146.98C317.653 143.307 319.807 140.52 322.34 138.62H322.53C322.783 138.62 323.1 138.937 323.48 139.57C323.987 140.077 323.987 140.457 323.48 140.71C322.213 141.977 321.263 143.433 320.63 145.08C320.123 146.6 319.87 148.247 319.87 150.02C319.87 152.427 320.25 154.897 321.01 157.43C321.897 159.837 322.973 161.927 324.24 163.7C327.407 168.133 331.777 171.68 337.35 174.34C343.05 176.873 348.623 178.14 354.07 178.14C361.543 178.14 367.307 175.923 371.36 171.49C375.54 167.057 377.63 161.61 377.63 155.15C377.63 151.223 376.87 147.297 375.35 143.37C373.323 137.923 370.6 132.603 367.18 127.41C363.887 122.09 360.847 116.897 358.06 111.83C355.653 107.27 354.45 102.647 354.45 97.96C354.45 93.02 355.97 88.27 359.01 83.71C362.05 79.6567 366.04 76.4267 370.98 74.02C376.047 71.4867 381.177 70.22 386.37 70.22C389.917 70.22 393.337 70.8533 396.63 72.12C399.923 73.3867 402.9 75.4767 405.56 78.39C406.32 79.53 406.7 80.9867 406.7 82.76C406.7 85.2933 406.193 87.2567 405.18 88.65C404.04 90.2967 402.773 92.45 401.38 95.11C399.987 97.77 399.163 99.6067 398.91 100.62C398.657 100.747 398.023 101 397.01 101.38C396.123 101.633 395.553 101.57 395.3 101.19C395.807 100.177 396.503 98.34 397.39 95.68C398.277 93.02 398.72 90.6133 398.72 88.46C398.72 87.0667 398.657 85.5467 398.53 83.9C398.53 82.1267 397.707 80.6067 396.06 79.34C394.54 77.9467 392.577 76.7433 390.17 75.73C387.763 74.7167 384.85 74.21 381.43 74.21C374.463 74.21 369.143 76.2367 365.47 80.29C361.797 84.3433 359.96 88.7767 359.96 93.59C359.96 95.9967 360.467 98.4033 361.48 100.81C363.38 105.37 366.04 109.677 369.46 113.73C372.88 117.783 376.237 121.963 379.53 126.27C382.95 130.45 385.61 135.01 387.51 139.95C388.777 143.243 389.41 146.6 389.41 150.02C389.41 154.96 388.143 159.457 385.61 163.51C383.203 167.563 379.91 171.11 375.73 174.15C371.677 177.063 367.243 179.343 362.43 180.99C357.617 182.637 352.803 183.46 347.99 183.46ZM443.023 177.57C441.756 177.57 440.679 177.317 439.793 176.81C438.906 176.303 438.463 175.353 438.463 173.96C438.463 172.187 438.906 170.16 439.793 167.88C440.679 165.6 441.693 163.383 442.833 161.23C443.973 158.95 444.986 157.113 445.873 155.72C441.439 160.407 436.816 164.84 432.003 169.02C429.596 171.047 426.936 172.947 424.023 174.72C421.109 176.493 418.006 177.38 414.713 177.38C413.446 177.38 412.559 177 412.053 176.24C411.546 175.353 411.293 174.34 411.293 173.2C411.293 172.567 411.356 172.123 411.483 171.87C412.116 166.93 413.699 161.8 416.233 156.48C418.766 151.16 421.869 146.157 425.543 141.47C429.216 136.783 432.953 132.983 436.753 130.07C441.059 126.777 445.809 125.13 451.003 125.13H472.853C473.486 125.13 473.803 125.383 473.803 125.89C473.803 126.903 473.233 127.41 472.093 127.41C470.826 127.41 469.559 128.233 468.293 129.88C467.026 131.4 466.076 132.667 465.443 133.68C464.556 135.073 463.163 137.417 461.263 140.71C459.363 144.003 457.399 147.613 455.373 151.54C453.473 155.34 451.826 158.887 450.433 162.18C449.039 165.473 448.343 167.88 448.343 169.4C448.343 171.173 449.229 172.06 451.003 172.06C452.903 172.06 455.056 171.173 457.463 169.4C459.869 167.627 462.276 165.473 464.683 162.94C467.216 160.28 469.496 157.683 471.523 155.15C473.676 152.49 475.386 150.4 476.653 148.88C477.413 149.64 477.349 150.717 476.463 152.11C475.703 153.377 475.006 154.39 474.373 155.15C471.839 158.443 468.926 161.863 465.633 165.41C462.339 168.83 458.729 171.743 454.803 174.15C451.003 176.43 447.076 177.57 443.023 177.57ZM422.503 170.92C424.023 170.92 426.113 169.843 428.773 167.69C431.559 165.41 434.536 162.623 437.703 159.33C440.869 155.91 443.846 152.363 446.633 148.69C449.419 144.89 451.699 141.47 453.473 138.43C455.373 135.263 456.323 132.857 456.323 131.21C456.323 129.817 455.879 128.867 454.993 128.36C454.233 127.853 453.219 127.6 451.953 127.6C449.926 127.6 447.709 128.36 445.303 129.88C443.023 131.273 441.186 132.667 439.793 134.06C438.273 135.453 436.436 137.67 434.283 140.71C432.256 143.623 430.229 146.853 428.203 150.4C426.176 153.947 424.466 157.367 423.073 160.66C421.679 163.953 420.983 166.613 420.983 168.64C420.983 170.16 421.489 170.92 422.503 170.92ZM500.012 178.71C498.366 178.71 496.402 178.393 494.122 177.76C491.842 177.253 490.702 175.86 490.702 173.58C490.702 172.693 490.892 171.68 491.272 170.54C491.652 169.4 492.032 168.387 492.412 167.5C493.679 164.207 495.009 160.85 496.402 157.43C497.796 154.01 499.252 150.527 500.772 146.98C499.126 148.88 497.542 150.653 496.022 152.3C494.629 153.82 493.616 154.96 492.982 155.72C492.602 156.227 492.286 156.48 492.032 156.48C491.779 156.48 491.652 156.163 491.652 155.53C491.652 154.517 491.969 153.567 492.602 152.68C494.376 150.4 496.402 147.993 498.682 145.46C500.962 142.927 503.179 140.267 505.332 137.48C510.652 126.333 516.606 115.567 523.192 105.18C529.779 94.6667 537.189 85.3567 545.422 77.25C547.956 74.8433 550.806 72.3733 553.972 69.84C557.139 67.3067 560.496 65.1533 564.042 63.38C567.716 61.6067 571.326 60.72 574.872 60.72C576.772 60.72 578.482 61.2267 580.002 62.24C581.649 63.2533 582.536 64.8367 582.662 66.99V72.5C582.662 73.0067 582.282 73.26 581.522 73.26C581.142 73.26 580.952 73.1333 580.952 72.88C580.952 70.8533 580.066 69.5233 578.292 68.89C576.519 68.13 574.746 67.75 572.972 67.75C566.006 67.75 559.736 69.5867 554.162 73.26C548.589 76.8067 543.649 81.4933 539.342 87.32C535.036 93.02 531.172 99.3533 527.752 106.32C524.332 113.16 521.229 119.937 518.442 126.65C515.782 133.237 513.249 139.127 510.842 144.32C510.842 144.32 510.842 144.447 510.842 144.7C510.842 144.953 510.906 145.08 511.032 145.08C511.159 145.08 512.172 144.13 514.072 142.23C516.099 140.203 518.569 137.86 521.482 135.2C524.522 132.54 527.689 130.26 530.982 128.36C534.276 126.333 537.316 125.32 540.102 125.32C541.496 125.32 542.382 125.827 542.762 126.84C543.142 127.727 543.332 128.74 543.332 129.88V131.59C542.699 136.277 541.052 141.343 538.392 146.79C535.859 152.237 532.566 157.43 528.512 162.37C524.586 167.183 520.152 171.11 515.212 174.15C510.399 177.19 505.332 178.71 500.012 178.71ZM503.052 175.48C505.079 175.48 507.232 174.72 509.512 173.2C511.919 171.553 513.756 170.097 515.022 168.83C516.542 167.437 518.379 165.283 520.532 162.37C522.686 159.33 524.776 156.037 526.802 152.49C528.829 148.943 530.539 145.523 531.932 142.23C533.326 138.937 534.022 136.277 534.022 134.25C534.022 133.617 533.896 133.047 533.642 132.54C533.389 132.033 532.946 131.78 532.312 131.78C531.172 131.78 529.652 132.477 527.752 133.87C525.979 135.263 524.016 136.973 521.862 139C519.836 140.9 517.936 142.8 516.162 144.7C514.516 146.473 513.312 147.803 512.552 148.69C511.159 150.21 509.386 152.427 507.232 155.34C505.079 158.253 503.116 161.23 501.342 164.27C499.696 167.183 498.872 169.653 498.872 171.68C498.872 174.213 500.266 175.48 503.052 175.48ZM587.898 177.57C586.631 177.57 585.554 177.317 584.668 176.81C583.781 176.303 583.338 175.353 583.338 173.96C583.338 172.187 583.781 170.16 584.668 167.88C585.554 165.6 586.568 163.383 587.708 161.23C588.848 158.95 589.861 157.113 590.748 155.72C586.314 160.407 581.691 164.84 576.878 169.02C574.471 171.047 571.811 172.947 568.898 174.72C565.984 176.493 562.881 177.38 559.588 177.38C558.321 177.38 557.434 177 556.928 176.24C556.421 175.353 556.168 174.34 556.168 173.2C556.168 172.567 556.231 172.123 556.358 171.87C556.991 166.93 558.574 161.8 561.108 156.48C563.641 151.16 566.744 146.157 570.418 141.47C574.091 136.783 577.828 132.983 581.628 130.07C585.934 126.777 590.684 125.13 595.878 125.13H617.728C618.361 125.13 618.678 125.383 618.678 125.89C618.678 126.903 618.108 127.41 616.968 127.41C615.701 127.41 614.434 128.233 613.168 129.88C611.901 131.4 610.951 132.667 610.318 133.68C609.431 135.073 608.038 137.417 606.138 140.71C604.238 144.003 602.274 147.613 600.248 151.54C598.348 155.34 596.701 158.887 595.308 162.18C593.914 165.473 593.218 167.88 593.218 169.4C593.218 171.173 594.104 172.06 595.878 172.06C597.778 172.06 599.931 171.173 602.338 169.4C604.744 167.627 607.151 165.473 609.558 162.94C612.091 160.28 614.371 157.683 616.398 155.15C618.551 152.49 620.261 150.4 621.528 148.88C622.288 149.64 622.224 150.717 621.338 152.11C620.578 153.377 619.881 154.39 619.248 155.15C616.714 158.443 613.801 161.863 610.508 165.41C607.214 168.83 603.604 171.743 599.678 174.15C595.878 176.43 591.951 177.57 587.898 177.57ZM567.378 170.92C568.898 170.92 570.988 169.843 573.648 167.69C576.434 165.41 579.411 162.623 582.578 159.33C585.744 155.91 588.721 152.363 591.508 148.69C594.294 144.89 596.574 141.47 598.348 138.43C600.248 135.263 601.198 132.857 601.198 131.21C601.198 129.817 600.754 128.867 599.868 128.36C599.108 127.853 598.094 127.6 596.828 127.6C594.801 127.6 592.584 128.36 590.178 129.88C587.898 131.273 586.061 132.667 584.668 134.06C583.148 135.453 581.311 137.67 579.158 140.71C577.131 143.623 575.104 146.853 573.078 150.4C571.051 153.947 569.341 157.367 567.948 160.66C566.554 163.953 565.858 166.613 565.858 168.64C565.858 170.16 566.364 170.92 567.378 170.92ZM638.047 179.85C637.541 179.85 637.541 179.28 638.047 178.14C638.681 177 639.251 175.733 639.757 174.34C640.391 172.947 641.024 171.427 641.657 169.78C642.924 166.74 644.317 163.32 645.837 159.52C647.357 155.72 648.814 152.047 650.207 148.5C651.601 144.827 652.804 141.723 653.817 139.19C654.957 136.53 655.717 134.82 656.097 134.06C654.324 135.96 652.171 138.367 649.637 141.28C647.231 144.067 644.951 146.79 642.797 149.45C640.644 152.11 638.997 154.2 637.857 155.72C637.477 156.227 637.161 156.48 636.907 156.48C636.654 156.48 636.527 156.163 636.527 155.53C636.527 154.517 636.844 153.567 637.477 152.68C639.884 149.64 642.544 146.22 645.457 142.42C648.497 138.62 651.221 135.137 653.627 131.97C656.034 128.677 657.554 126.523 658.187 125.51C659.581 125.257 661.607 124.877 664.267 124.37C667.054 123.863 668.954 123.167 669.967 122.28C670.347 121.9 670.727 121.71 671.107 121.71C671.361 121.71 671.487 121.963 671.487 122.47C671.614 122.85 671.487 123.293 671.107 123.8C670.347 124.687 669.017 126.777 667.117 130.07C665.344 133.237 663.381 136.783 661.227 140.71C659.201 144.637 657.301 148.183 655.527 151.35C657.047 149.323 658.694 147.36 660.467 145.46C662.241 143.56 663.951 141.723 665.597 139.95C667.117 138.43 669.207 136.53 671.867 134.25C674.527 131.97 677.314 129.88 680.227 127.98C683.141 126.08 685.674 125.003 687.827 124.75C688.334 124.623 688.777 124.56 689.157 124.56C689.664 124.56 690.044 124.56 690.297 124.56C693.084 124.56 694.477 125.573 694.477 127.6C694.477 129.12 693.654 131.147 692.007 133.68C691.121 135.073 689.727 137.417 687.827 140.71C686.054 143.877 684.217 147.36 682.317 151.16C680.544 154.833 678.961 158.317 677.567 161.61C676.301 164.777 675.667 167.12 675.667 168.64C675.667 170.413 676.554 171.3 678.327 171.3C680.481 171.3 682.824 170.223 685.357 168.07C688.017 165.917 690.867 163.193 693.907 159.9C696.947 156.48 699.987 152.87 703.027 149.07C703.281 149.323 703.407 149.767 703.407 150.4C703.407 151.287 703.091 152.173 702.457 153.06C701.951 153.82 701.444 154.517 700.937 155.15C699.671 156.797 697.961 158.887 695.807 161.42C693.781 163.827 691.691 166.233 689.537 168.64C687.384 170.92 685.421 172.757 683.647 174.15C682.381 175.037 680.734 175.987 678.707 177C676.681 178.013 674.654 178.52 672.627 178.52C670.347 178.52 668.764 177.95 667.877 176.81C666.991 175.543 666.547 174.023 666.547 172.25C666.547 170.223 666.927 168.07 667.687 165.79C668.447 163.51 669.271 161.357 670.157 159.33C671.171 157.177 671.931 155.593 672.437 154.58C674.717 150.147 676.807 145.967 678.707 142.04C680.607 138.113 681.937 135.327 682.697 133.68C683.077 132.92 683.267 132.287 683.267 131.78C683.267 130.893 682.571 130.83 681.177 131.59C679.784 132.35 678.074 133.49 676.047 135.01C674.147 136.53 672.374 138.05 670.727 139.57C669.081 140.963 668.004 141.913 667.497 142.42C662.811 147.36 658.694 152.87 655.147 158.95C651.727 164.903 648.814 171.047 646.407 177.38C644.761 177.507 643.114 177.95 641.467 178.71C639.821 179.47 638.681 179.85 638.047 179.85ZM758.142 104.42C756.369 104.42 755.102 103.85 754.342 102.71C753.835 102.077 753.582 101.253 753.582 100.24C753.582 98.2133 754.532 96.5667 756.432 95.3C757.825 94.54 759.092 94.16 760.232 94.16C762.132 94.16 763.462 94.73 764.222 95.87C764.729 96.5033 764.982 97.3267 764.982 98.34C764.982 100.367 763.969 102.013 761.942 103.28C760.802 104.04 759.535 104.42 758.142 104.42ZM725.082 177.57C723.815 177.57 722.739 177.317 721.852 176.81C721.092 176.303 720.712 175.353 720.712 173.96C720.712 172.187 721.155 170.097 722.042 167.69C723.055 165.283 724.132 162.877 725.272 160.47C726.539 158.063 727.489 156.1 728.122 154.58C729.009 152.807 730.085 150.527 731.352 147.74C732.745 144.827 734.012 142.103 735.152 139.57C736.419 136.91 737.305 135.073 737.812 134.06C736.039 135.96 733.885 138.367 731.352 141.28C728.945 144.067 726.665 146.79 724.512 149.45C722.359 152.11 720.712 154.2 719.572 155.72C719.192 156.227 718.875 156.48 718.622 156.48C718.369 156.48 718.242 156.163 718.242 155.53C718.242 154.517 718.559 153.567 719.192 152.68C721.599 149.64 724.259 146.22 727.172 142.42C730.212 138.62 732.935 135.137 735.342 131.97C737.749 128.677 739.269 126.523 739.902 125.51C741.295 125.257 743.322 124.877 745.982 124.37C748.769 123.863 750.669 123.167 751.682 122.28C752.062 121.9 752.442 121.71 752.822 121.71C753.075 121.71 753.202 121.963 753.202 122.47C753.329 122.85 753.202 123.293 752.822 123.8C752.062 124.687 750.732 126.84 748.832 130.26C746.932 133.68 744.905 137.48 742.752 141.66C740.725 145.713 738.825 149.387 737.052 152.68C735.279 156.1 733.759 159.393 732.492 162.56C731.225 165.727 730.592 168.007 730.592 169.4C730.592 171.173 731.479 172.06 733.252 172.06C734.899 172.06 736.989 171.047 739.522 169.02C742.182 166.993 744.842 164.587 747.502 161.8C750.162 158.887 752.505 156.227 754.532 153.82C755.165 153.06 755.925 152.173 756.812 151.16C757.825 150.02 758.459 149.323 758.712 149.07C758.965 149.323 759.092 149.767 759.092 150.4C758.965 151.287 758.649 152.173 758.142 153.06C757.635 153.82 757.129 154.517 756.622 155.15C753.962 158.443 751.049 161.863 747.882 165.41C744.715 168.83 741.232 171.743 737.432 174.15C733.632 176.43 729.515 177.57 725.082 177.57ZM786.715 177.38C782.915 177.38 780.318 176.493 778.925 174.72C777.532 172.82 776.835 170.54 776.835 167.88C776.835 164.333 777.595 160.533 779.115 156.48C780.762 152.427 782.092 149.26 783.105 146.98C781.458 148.753 779.875 150.463 778.355 152.11C776.835 153.757 775.758 154.96 775.125 155.72C774.745 156.227 774.428 156.48 774.175 156.48C773.922 156.48 773.795 156.163 773.795 155.53C773.795 154.517 774.112 153.567 774.745 152.68C776.518 150.4 778.545 147.993 780.825 145.46C783.105 142.927 785.322 140.267 787.475 137.48C790.008 132.793 792.795 127.347 795.835 121.14C799.002 114.807 802.232 108.347 805.525 101.76C808.945 95.0467 812.238 88.9033 815.405 83.33C818.698 77.63 821.612 73.07 824.145 69.65C826.298 68.7633 828.325 67.6233 830.225 66.23C832.252 64.8367 834.215 63.57 836.115 62.43C838.142 61.1633 840.232 60.53 842.385 60.53C843.778 60.53 844.792 60.91 845.425 61.67C846.185 62.43 846.692 63.3167 846.945 64.33C847.072 64.71 847.135 65.4067 847.135 66.42C847.135 69.3333 846.122 72.88 844.095 77.06C842.195 81.24 839.915 85.3567 837.255 89.41C834.722 93.3367 832.505 96.5667 830.605 99.1C825.538 106.193 820.345 112.653 815.025 118.48C809.705 124.18 804.892 128.993 800.585 132.92C796.405 136.72 793.365 139.507 791.465 141.28C790.578 142.927 789.502 145.143 788.235 147.93C787.095 150.59 786.082 153.44 785.195 156.48C784.308 159.393 783.865 162.117 783.865 164.65C783.865 166.803 784.372 168.64 785.385 170.16C786.398 171.553 788.108 172.25 790.515 172.25C790.895 172.25 791.275 172.25 791.655 172.25C792.035 172.25 792.478 172.187 792.985 172.06C795.138 171.68 797.482 170.477 800.015 168.45C802.548 166.423 805.082 164.08 807.615 161.42C810.148 158.76 812.428 156.227 814.455 153.82C815.342 152.807 816.165 151.857 816.925 150.97C817.685 149.957 818.192 149.26 818.445 148.88C819.332 149.767 819.268 150.907 818.255 152.3C817.368 153.567 816.608 154.643 815.975 155.53C815.088 156.67 813.822 158.253 812.175 160.28C810.528 162.18 808.628 164.27 806.475 166.55C804.068 168.957 801.092 171.363 797.545 173.77C793.998 176.177 790.388 177.38 786.715 177.38ZM794.695 133.68C798.622 130.387 803.562 125.7 809.515 119.62C815.595 113.413 821.548 105.94 827.375 97.2C828.008 96.1867 829.022 94.4767 830.415 92.07C831.935 89.6633 833.455 86.94 834.975 83.9C836.622 80.7333 838.015 77.6933 839.155 74.78C840.295 71.74 840.865 69.1433 840.865 66.99C840.865 64.9633 840.295 63.95 839.155 63.95C837.762 63.95 835.925 65.1533 833.645 67.56C830.985 70.3467 827.945 74.4633 824.525 79.91C821.232 85.23 817.748 91.1833 814.075 97.77C810.402 104.357 806.855 110.817 803.435 117.15C800.142 123.483 797.228 128.993 794.695 133.68ZM859.65 177.57C858.383 177.57 857.306 177.317 856.42 176.81C855.533 176.303 855.09 175.353 855.09 173.96C855.09 172.187 855.533 170.16 856.42 167.88C857.306 165.6 858.32 163.383 859.46 161.23C860.6 158.95 861.613 157.113 862.5 155.72C858.066 160.407 853.443 164.84 848.63 169.02C846.223 171.047 843.563 172.947 840.65 174.72C837.736 176.493 834.633 177.38 831.34 177.38C830.073 177.38 829.186 177 828.68 176.24C828.173 175.353 827.92 174.34 827.92 173.2C827.92 172.567 827.983 172.123 828.11 171.87C828.743 166.93 830.326 161.8 832.86 156.48C835.393 151.16 838.496 146.157 842.17 141.47C845.843 136.783 849.58 132.983 853.38 130.07C857.686 126.777 862.436 125.13 867.63 125.13H889.48C890.113 125.13 890.43 125.383 890.43 125.89C890.43 126.903 889.86 127.41 888.72 127.41C887.453 127.41 886.186 128.233 884.92 129.88C883.653 131.4 882.703 132.667 882.07 133.68C881.183 135.073 879.79 137.417 877.89 140.71C875.99 144.003 874.026 147.613 872 151.54C870.1 155.34 868.453 158.887 867.06 162.18C865.666 165.473 864.97 167.88 864.97 169.4C864.97 171.173 865.856 172.06 867.63 172.06C869.53 172.06 871.683 171.173 874.09 169.4C876.496 167.627 878.903 165.473 881.31 162.94C883.843 160.28 886.123 157.683 888.15 155.15C890.303 152.49 892.013 150.4 893.28 148.88C894.04 149.64 893.976 150.717 893.09 152.11C892.33 153.377 891.633 154.39 891 155.15C888.466 158.443 885.553 161.863 882.26 165.41C878.966 168.83 875.356 171.743 871.43 174.15C867.63 176.43 863.703 177.57 859.65 177.57ZM839.13 170.92C840.65 170.92 842.74 169.843 845.4 167.69C848.186 165.41 851.163 162.623 854.33 159.33C857.496 155.91 860.473 152.363 863.26 148.69C866.046 144.89 868.326 141.47 870.1 138.43C872 135.263 872.95 132.857 872.95 131.21C872.95 129.817 872.506 128.867 871.62 128.36C870.86 127.853 869.846 127.6 868.58 127.6C866.553 127.6 864.336 128.36 861.93 129.88C859.65 131.273 857.813 132.667 856.42 134.06C854.9 135.453 853.063 137.67 850.91 140.71C848.883 143.623 846.856 146.853 844.83 150.4C842.803 153.947 841.093 157.367 839.7 160.66C838.306 163.953 837.61 166.613 837.61 168.64C837.61 170.16 838.116 170.92 839.13 170.92Z" fill="#1E1E1E"/>
</g>
<defs>
<filter id="filter0_b_6_22" x="6" y="5" width="268" height="204" filterUnits="userSpaceOnUse" color-interpolation-filters="sRGB">
<feFlood flood-opacity="0" result="BackgroundImageFix"/>
<feGaussianBlur in="BackgroundImageFix" stdDeviation="2"/>
<feComposite in2="SourceAlpha" operator="in" result="effect1_backgroundBlur_6_22"/>
<feBlend mode="normal" in="SourceGraphic" in2="effect1_backgroundBlur_6_22" result="shape"/>
</filter>
<clipPath id="clip0_6_22">
<rect width="902" height="280" fill="white"/>
</clipPath>
<clipPath id="clip1_6_22">
<rect width="280" height="280" fill="white"/>
</clipPath>
</defs>
</svg>
